<svg xmlns="http://www.w3.org/2000/svg" version="1.1" xmlns:xlink="http://www.w3.org/1999/xlink" xmlns:svgjs="http://svgjs.dev/svgjs" width="1000" height="1000" viewBox="0 0 1000 1000"><rect width="1000" height="1000" fill="#000000"></rect><g transform="matrix(0.7,0,0,0.7,149.57575757575756,383.8816838227084)"><svg viewBox="0 0 396 132" data-background-color="#ffffff" preserveAspectRatio="xMidYMid meet" height="333" width="1000" xmlns="http://www.w3.org/2000/svg" xmlns:xlink="http://www.w3.org/1999/xlink"><defs></defs><g id="tight-bounds" transform="matrix(1,0,0,1,0.2400000000000091,-0.2444541595774865)"><svg viewBox="0 0 395.52 132.48890743708523" height="132.48890743708523" width="395.52"><g><svg viewBox="0 0 397.4976 133.15135197427065" height="132.48890743708523" width="395.52"><g><rect width="397.4976" height="3.808890730261058" x="0" y="68.34114159680377" fill="#ffffff" opacity="1" stroke-width="0" stroke="transparent" fill-opacity="1" class="rect-o-0" data-fill-palette-color="primary" rx="1%" id="o-0" data-palette-color="#0080ff"></rect></g><g><rect width="397.4976" height="3.808890730261058" x="0" y="77.13549139808714" fill="#ffffff" opacity="1" stroke-width="0" stroke="transparent" fill-opacity="1" class="rect-o-1" data-fill-palette-color="primary" rx="1%" id="o-1" data-palette-color="#0080ff"></rect></g><g transform="matrix(1,0,0,1,0.9887999999999693,90.91530027039285)"><svg viewBox="0 0 395.52000000000004 42.23605170387779" height="42.23605170387779" width="395.52000000000004"><g><svg viewBox="0 0 395.52000000000004 42.23605170387779" height="42.23605170387779" width="395.52000000000004"><g><svg viewBox="0 0 395.52000000000004 42.23605170387779" height="42.23605170387779" width="395.52000000000004"><g transform="matrix(1,0,0,1,0,0)"><svg width="395.52000000000004" viewBox="3.9000000953674316 -35.79999923706055 340.3699951171875 36.349998474121094" height="42.23605170387779" data-palette-color="#0080ff"><path d="M26.3 0L21.35-29.95 16.4 0 12.15 0 3.9-35 6.9-35 14.05-3.45 19.4-35 23.3-35 28.65-3.45 35.7-35 38.7-35 30.55 0 26.3 0ZM44.25 0L44.25-35 60.95-35 60.95-32.4 47.05-32.4 47.05-20.65 56.6-20.65 55.65-17.9 47.05-17.9 47.05-2.5 60.85-2.5 60.85 0 44.25 0ZM67.5 0L67.5-35 78.55-35Q82.65-35 85-32.9 87.34-30.8 87.34-26.5L87.34-26.5Q87.34-24.55 86.7-22.8 86.05-21.05 84.05-19.7L84.05-19.7 84-19.6 84-19.55Q86.2-18.55 87.67-16.3 89.15-14.05 89.15-10.45L89.15-10.45Q89.15-6.15 86.82-3.08 84.5 0 79 0L79 0 67.5 0ZM78.45-20.65Q81.25-20.65 82.84-22.15 84.45-23.65 84.45-26.5L84.45-26.5Q84.45-32.35 78.15-32.35L78.15-32.35 70.3-32.35 70.3-20.65 78.45-20.65ZM78.9-2.65Q82.25-2.65 84.2-4.45 86.15-6.25 86.15-10.65L86.15-10.65Q86.15-14.15 84.25-16.03 82.34-17.9 79.75-17.9L79.75-17.9 70.3-17.9 70.3-2.65 78.9-2.65ZM113.19 0L113.19-32.5 104.69-32.5 104.69-35 124.79-35 124.79-32.5 115.99-32.5 115.99 0 113.19 0ZM147.94-9.25Q147.94-4.2 144.86-1.83 141.79 0.55 137.49 0.55L137.49 0.55Q134.79 0.55 132.39-0.43 129.99-1.4 128.46-3.6 126.94-5.8 126.94-9.25L126.94-9.25 126.94-25.35Q126.94-30.5 129.76-33.15 132.59-35.8 137.54-35.8L137.54-35.8Q142.49-35.8 145.21-33 147.94-30.2 147.94-25.3L147.94-25.3 147.94-9.25ZM145.19-25.8Q145.19-29.45 143.06-31.3 140.94-33.15 137.44-33.15L137.44-33.15Q133.94-33.15 131.84-31.3 129.74-29.45 129.74-25.8L129.74-25.8 129.74-9.3Q129.74-5.75 131.91-3.93 134.09-2.1 137.44-2.1L137.44-2.1Q140.84-2.1 143.01-3.88 145.19-5.65 145.19-9.35L145.19-9.35 145.19-25.8ZM155.14 0L155.14-35 167.44-35Q172.19-35 174.51-32.1 176.84-29.2 176.84-24.3L176.84-24.3Q176.84-21.15 176.34-18.63 175.84-16.1 173.84-14.18 171.84-12.25 167.79-12.25L167.79-12.25 157.94-12.25 157.94 0 155.14 0ZM167.84-15Q170.64-15 172.01-16.5 173.39-18 173.71-19.9 174.04-21.8 174.04-24.15L174.04-24.15Q174.04-28.25 172.34-30.3 170.64-32.35 167.64-32.35L167.64-32.35 157.94-32.35 157.94-15 167.84-15ZM202.63-9.25Q202.63-4.2 199.56-1.83 196.48 0.55 192.18 0.55L192.18 0.55Q189.48 0.55 187.08-0.43 184.68-1.4 183.16-3.6 181.63-5.8 181.63-9.25L181.63-9.25 181.63-25.35Q181.63-30.5 184.46-33.15 187.28-35.8 192.23-35.8L192.23-35.8Q197.18-35.8 199.91-33 202.63-30.2 202.63-25.3L202.63-25.3 202.63-9.25ZM199.88-25.8Q199.88-29.45 197.76-31.3 195.63-33.15 192.13-33.15L192.13-33.15Q188.63-33.15 186.53-31.3 184.43-29.45 184.43-25.8L184.43-25.8 184.43-9.3Q184.43-5.75 186.61-3.93 188.78-2.1 192.13-2.1L192.13-2.1Q195.53-2.1 197.71-3.88 199.88-5.65 199.88-9.35L199.88-9.35 199.88-25.8ZM209.83 0L209.83-35 212.63-35 212.63-2.5 227.88-2.5 227.88 0 209.83 0ZM252.08-9.25Q252.08-4.2 249-1.83 245.93 0.55 241.63 0.55L241.63 0.55Q238.93 0.55 236.53-0.43 234.13-1.4 232.6-3.6 231.08-5.8 231.08-9.25L231.08-9.25 231.08-25.35Q231.08-30.5 233.9-33.15 236.73-35.8 241.68-35.8L241.68-35.8Q246.63-35.8 249.35-33 252.08-30.2 252.08-25.3L252.08-25.3 252.08-9.25ZM249.33-25.8Q249.33-29.45 247.2-31.3 245.08-33.15 241.58-33.15L241.58-33.15Q238.08-33.15 235.98-31.3 233.88-29.45 233.88-25.8L233.88-25.8 233.88-9.3Q233.88-5.75 236.05-3.93 238.23-2.1 241.58-2.1L241.58-2.1Q244.98-2.1 247.15-3.88 249.33-5.65 249.33-9.35L249.33-9.35 249.33-25.8ZM277.13 0L276.43-2.05Q273.82 0.5 269.18 0.5L269.18 0.5Q266.38 0.5 263.98-0.55 261.57-1.6 260.1-3.85 258.63-6.1 258.63-9.45L258.63-9.45 258.63-25.15Q258.63-28.65 259.75-30.78 260.88-32.9 262.98-34.2L262.98-34.2Q265.18-35.45 268.38-35.45L268.38-35.45Q272.27-35.45 275.43-33.8L275.43-33.8 274.63-31.9Q271.77-32.95 269.23-32.95L269.23-32.95Q266.18-32.95 263.8-31.45 261.43-29.95 261.43-25.6L261.43-25.6 261.43-9.35Q261.43-6 263.6-4.1 265.77-2.2 269.13-2.2L269.13-2.2Q272.52-2.2 274.52-4.15 276.52-6.1 276.52-9.3L276.52-9.3 276.52-12.25 273.23-12.25 272.27-15 279.18-15 279.18 0 277.13 0ZM288.87 0L288.87-32.45 285.52-32.55 285.52-35 291.67-35 291.67 0 288.87 0ZM299.32 0L299.32-35 316.02-35 316.02-32.4 302.12-32.4 302.12-20.65 311.67-20.65 310.72-17.9 302.12-17.9 302.12-2.5 315.92-2.5 315.92 0 299.32 0ZM323.37-8.9Q323.52-7.2 324.64-5.65 325.77-4.1 327.74-3.13 329.72-2.15 332.27-2.15L332.27-2.15Q336.12-2.15 338.69-3.88 341.27-5.6 341.27-9.35L341.27-9.35Q341.27-11.55 340.02-13.03 338.77-14.5 336.92-15.38 335.07-16.25 331.87-17.4L331.87-17.4Q328.42-18.6 326.34-19.63 324.27-20.65 322.84-22.4 321.42-24.15 321.42-26.9L321.42-26.9Q321.42-29.1 322.67-31.08 323.92-33.05 326.44-34.27 328.97-35.5 332.67-35.5L332.67-35.5Q335.12-35.5 336.72-35.15 338.32-34.8 339.97-34L339.97-34 339.12-31.35Q336.27-32.8 332.77-32.8L332.77-32.8Q328.92-32.8 326.62-31.2 324.32-29.6 324.32-26.75L324.32-26.75Q324.32-24.95 325.47-23.73 326.62-22.5 328.29-21.75 329.97-21 332.97-19.95L332.97-19.95Q336.62-18.7 338.87-17.63 341.12-16.55 342.69-14.58 344.27-12.6 344.27-9.6L344.27-9.6Q344.27-5 341.34-2.23 338.42 0.55 332.32 0.55L332.32 0.55Q328.62 0.55 325.99-0.83 323.37-2.2 321.99-4.38 320.62-6.55 320.52-8.9L320.52-8.9 323.37-8.9Z" opacity="1" transform="matrix(1,0,0,1,0,0)" fill="#ffffff" class="undefined-text-0" data-fill-palette-color="primary" id="text-0"></path></svg></g></svg></g></svg></g></svg></g><g transform="matrix(1,0,0,1,170.44856249553087,0)"><svg viewBox="0 0 56.60047500893827 58.37022345475911" height="58.37022345475911" width="56.60047500893827"><g><svg xmlns="http://www.w3.org/2000/svg" xmlns:xlink="http://www.w3.org/1999/xlink" version="1.1" x="0" y="0" viewBox="1 0.28299999237060547 96.97000122070312 100.00199890136719" enable-background="new 0 0 100 100" xml:space="preserve" width="56.60047500893827" height="58.37022345475911" class="icon-icon-0" data-fill-palette-color="accent" id="icon-0"><path d="M94.273 62.561l-4.411-26.07c1.115-0.836 1.847-2.156 1.847-3.657 0-2.531-2.052-4.583-4.584-4.583-0.617 0-1.205 0.126-1.742 0.348L72.105 14.91c1.107-0.986 1.819-2.407 1.819-4.007 0-2.971-2.405-5.379-5.379-5.379-1.854 0-3.487 0.939-4.457 2.368L42.86 3.369c-0.359-1.761-1.916-3.086-3.784-3.086-2.134 0-3.862 1.729-3.862 3.862 0 0.676 0.19 1.304 0.496 1.857L18.896 23.405c-0.239-0.036-0.479-0.073-0.729-0.073-2.669 0-4.833 2.164-4.833 4.834 0 1.788 0.982 3.332 2.426 4.168L7.01 54.818c-0.223-0.031-0.445-0.068-0.677-0.068-2.669 0-4.833 2.164-4.833 4.834 0 2.016 1.235 3.74 2.988 4.465L4.162 87.48C2.32 88.164 1 89.921 1 92.001c0 2.67 2.164 4.834 4.833 4.834 2.442 0 4.441-1.817 4.766-4.172l40.078-2.649c0.705 1.5 2.218 2.545 3.985 2.545 1.021 0 1.947-0.359 2.695-0.941l19.896 6.713c0.665 1.162 1.903 1.954 3.338 1.954 2.133 0 3.862-1.729 3.862-3.862 0-0.268-0.026-0.525-0.079-0.777l9.846-24.393c2.121-0.322 3.75-2.138 3.75-4.35C97.973 64.71 96.369 62.904 94.273 62.561zM51.657 39.797L67.333 60c-0.463 0.561-0.812 1.205-1.024 1.918l-30.252-2.072c-0.182-0.445-0.439-0.847-0.738-1.214l11.368-18.284c0.597 0.202 1.233 0.317 1.898 0.317C49.711 40.665 50.762 40.344 51.657 39.797zM53.641 37.81c0.324-0.537 0.558-1.133 0.7-1.763l28.458-1.763c0.188 0.562 0.479 1.07 0.854 1.511L72.047 58.029c-0.16-0.014-0.314-0.049-0.479-0.049-0.711 0-1.385 0.146-2.008 0.391L53.641 37.81zM65.459 15.297c0.875 0.616 1.938 0.985 3.088 0.985 0.373 0 0.739-0.039 1.092-0.111l13.624 14.215c-0.27 0.425-0.471 0.896-0.589 1.399l-28.312 1.762c-0.17-0.814-0.495-1.572-0.963-2.227L65.459 15.297zM42.395 6.091l20.812 4.433c-0.01 0.128-0.039 0.25-0.039 0.379 0 0.813 0.193 1.577 0.518 2.268L51.354 29.522c-0.681-0.362-1.44-0.594-2.249-0.664-0.27-0.042-0.545-0.065-0.827-0.065-0.183 0-0.354 0.036-0.531 0.054L41.208 7.362C41.698 7.037 42.097 6.598 42.395 6.091zM37.964 7.824c0.173 0.052 0.349 0.096 0.531 0.124l6.653 21.823c-1.042 0.72-1.799 1.796-2.151 3.043-0.03 0.086-0.06 0.171-0.086 0.259l0 0L22.92 27.378c-0.184-1.117-0.749-2.095-1.559-2.814L37.964 7.824zM22.583 30.117l20.178 5.65c0.224 1.291 0.865 2.436 1.782 3.295L33.291 57.159c-0.532-0.202-1.104-0.326-1.708-0.326-0.123 0-0.238 0.026-0.358 0.036l-10.108-24.9C21.746 31.48 22.257 30.853 22.583 30.117zM18.184 32.997c0.218 0 0.426-0.035 0.636-0.064l10.043 24.74c-0.918 0.627-1.589 1.569-1.904 2.663l-15.881-1.637c-0.218-1.176-0.866-2.188-1.767-2.897L18.184 32.997zM8.293 87.859c-0.418-0.248-0.871-0.44-1.358-0.555l0.301-22.979c1.701-0.322 3.07-1.536 3.636-3.137l16.04 1.652c0.144 0.573 0.38 1.108 0.709 1.58L8.293 87.859zM50.338 87.273l-40.156 2.652c-0.042-0.089-0.092-0.173-0.14-0.259l19.494-23.638c0.624 0.294 1.312 0.471 2.047 0.471 0.438 0 0.853-0.077 1.256-0.186L50.95 85.775C50.661 86.227 50.446 86.729 50.338 87.273zM56.46 84.12c-0.55-0.246-1.155-0.39-1.797-0.39-0.558 0-1.083 0.112-1.573 0.302L35.199 64.844c0.547-0.621 0.95-1.371 1.12-2.215l29.865 2.047c0.142 0.646 0.397 1.248 0.743 1.787L56.46 84.12zM76.915 95.302l-17.99-6.071c0.089-0.35 0.15-0.709 0.15-1.086 0.001-0.787-0.222-1.516-0.583-2.154L68.96 68.332c0.78 0.422 1.658 0.684 2.606 0.684 0.065 0 0.129-0.018 0.191-0.02l6.979 24.056C77.866 93.533 77.209 94.333 76.915 95.302zM82.447 93.052c-0.305-0.167-0.627-0.303-0.975-0.384l-7.06-24.465c1.251-0.76 2.177-1.988 2.519-3.455L89.5 68.635c0.389 0.911 1.085 1.647 1.947 2.122L82.447 93.052zM89.275 65.884L76.85 61.99c-0.354-1.24-1.111-2.307-2.146-3.022l11.295-21.707c-1.457-0.511 0.734 0.156 1.127 0.156 0.035 0 0.068-0.01 0.104-0.01l4.317 25.589C90.419 63.579 89.575 64.62 89.275 65.884z" fill="#ffffff" data-fill-palette-color="accent"></path></svg></g></svg></g><g></g></svg></g></svg><rect width="395.52" height="132.48890743708523" fill="none" stroke="none" visibility="hidden"></rect></g></svg></g></svg>